<svg version="1.1" id="Layer_1" xmlns="http://www.w3.org/2000/svg" xmlns:xlink="http://www.w3.org/1999/xlink" x="0px" y="0px"
	 width="100%" viewBox="0 0 1024 1024" enable-background="new 0 0 1024 1024" xml:space="preserve">
<path fill="#000000" opacity="1.000000" stroke="none" 
	d="
M665.277954,532.234619 
	C664.033325,539.268005 663.961426,545.935364 664.074158,552.597900 
	C664.108704,554.635437 663.243469,557.400452 665.712219,558.421082 
	C668.153503,559.430298 669.624084,557.046570 671.024719,555.513000 
	C683.096741,542.295471 692.346130,527.325562 697.598267,510.182495 
	C703.886047,489.658783 709.759094,469.005798 715.613586,448.352661 
	C717.734192,440.871796 721.176086,433.753448 721.229492,425.661438 
	C721.255005,421.784241 724.557678,422.307312 726.687561,423.861572 
	C729.043152,425.580505 730.771301,427.736176 734.025024,425.449890 
	C735.295532,424.557159 736.348633,426.141663 737.265259,427.099670 
	C740.004150,429.962494 740.757690,433.755463 741.925659,437.667786 
	C745.121765,435.233063 743.378052,430.593140 746.669800,428.609650 
	C749.931458,429.895966 749.323975,432.689362 749.222778,435.031311 
	C748.689575,447.358398 746.545959,459.509186 744.950439,471.716858 
	C741.521301,497.952179 737.920776,524.165100 734.476562,550.398499 
	C733.669312,556.546936 735.021484,557.528992 741.023193,555.685181 
	C741.182495,555.636353 741.339233,555.576416 741.501038,555.538330 
	C744.034119,554.943054 747.207947,553.311401 748.831787,556.018250 
	C750.730164,559.182739 746.193787,559.507019 745.107666,561.735107 
	C744.874390,563.612183 747.842651,562.781982 747.745056,565.291626 
	C744.142639,570.043701 736.849121,571.599915 733.038391,577.493530 
	C736.973267,579.964722 740.396057,578.038025 743.616638,577.506897 
	C752.817810,575.989624 762.045349,574.734009 771.315796,573.799683 
	C773.629517,573.566528 775.456482,572.712891 777.042419,571.132385 
	C789.348999,558.868530 802.541382,547.677917 817.010254,538.019531 
	C818.172363,537.243774 819.730591,536.498779 819.207458,534.468445 
	C817.166809,532.990356 815.405396,534.460632 813.681152,535.160828 
	C808.235840,537.372070 802.669434,538.059387 797.077942,536.160583 
	C791.467529,534.255371 785.543335,536.426453 779.836670,534.094604 
	C775.657227,532.386841 773.344788,529.808594 771.837463,525.916809 
	C760.943481,497.790161 755.790344,468.680817 756.642273,438.502808 
	C756.793335,433.151825 757.277222,427.872070 758.426575,422.662140 
	C758.863525,420.681580 758.020203,417.807190 760.716858,417.103394 
	C763.410645,416.400330 762.661743,420.199341 764.866089,420.987915 
	C766.921814,418.765686 767.436584,415.354187 770.092712,413.488861 
	C771.040894,412.823059 771.782288,411.801941 773.064514,411.896851 
	C773.686768,411.942902 774.829712,412.354248 774.815796,412.525085 
	C774.313599,418.681610 783.762939,415.618988 783.317993,421.782013 
	C783.140625,424.237885 782.874207,426.860107 787.152466,426.271606 
	C790.287903,425.840332 790.074585,428.942047 789.986450,430.986755 
	C789.771301,435.975586 789.261108,440.951050 788.909851,445.934723 
	C787.547241,465.268188 787.927429,484.536652 791.402466,503.652527 
	C792.299377,508.586304 793.960022,513.350281 796.827026,517.520569 
	C799.583191,521.529724 801.676392,521.532227 804.459229,517.617004 
	C811.182983,508.157349 815.738037,497.709229 819.098328,486.597961 
	C825.744995,464.619843 831.071655,442.229919 839.403870,420.773132 
	C841.518616,415.327545 843.777344,409.919525 847.776917,405.537872 
	C849.898438,403.213806 852.351562,401.269592 855.319519,404.591309 
	C855.537842,404.835693 855.807373,405.209595 856.064148,405.218903 
	C863.124268,405.473877 864.956299,409.906525 864.202026,416.110992 
	C872.382874,414.417694 872.382874,414.417694 869.401428,426.593658 
	C875.147217,427.814667 873.418823,431.602325 872.246094,435.306396 
	C864.330811,460.308380 859.796265,486.011566 856.447327,511.954987 
	C855.749451,517.361145 857.414673,518.737061 863.173035,517.406738 
	C881.627930,513.143005 899.857178,513.793213 917.860718,519.753845 
	C920.035706,520.473999 922.414856,520.878540 924.116760,523.286560 
	C922.541992,524.620239 920.898621,526.125488 922.280396,528.112122 
	C909.297241,533.825623 895.637878,529.331726 882.588989,532.166992 
	C872.899414,534.272461 863.710571,537.485718 854.854553,541.844482 
	C852.065247,543.217407 850.640259,545.307983 850.063477,548.355347 
	C848.238647,557.997314 846.313965,567.622314 844.266602,577.219482 
	C843.225220,582.100952 845.332397,584.745789 849.702881,586.372192 
	C861.169312,590.639343 871.841919,596.439636 881.700623,603.665527 
	C884.533447,605.741760 888.990051,607.473389 885.474060,612.521545 
	C884.907227,613.335388 885.852539,614.349426 886.376709,615.214050 
	C887.321411,616.772339 888.285950,618.350586 888.953918,620.034851 
	C889.542114,621.517883 890.429443,623.346985 888.654785,624.586121 
	C887.070740,625.692139 885.859192,624.230408 884.689575,623.394531 
	C881.211792,620.909119 877.678162,618.572510 872.901917,617.368774 
	C874.325745,620.861877 878.444702,621.887573 877.946899,625.681946 
	C876.208923,627.380920 874.765381,626.039001 873.450134,625.243774 
	C863.394897,619.163940 852.363220,615.386353 841.419861,611.351685 
	C836.848450,609.666260 834.463318,610.567810 832.936279,615.460205 
	C828.118469,630.895630 822.232849,645.949585 815.172485,660.503601 
	C808.759888,673.722473 801.854126,686.680054 790.925537,696.893677 
	C785.850891,701.636353 780.281128,705.440186 772.853027,705.332581 
	C769.901733,705.289856 766.988892,704.780640 764.879272,702.908020 
	C761.151428,699.598938 756.634094,698.056702 752.245422,696.103394 
	C741.866394,691.483948 738.298584,682.197754 736.764648,672.027588 
	C733.647156,651.358337 739.190002,632.115540 747.219727,613.354248 
	C748.351990,610.708801 751.268066,607.969788 749.289673,605.073608 
	C747.013977,601.742310 743.337341,604.209900 740.464233,604.620117 
	C727.340942,606.493408 727.252136,606.613708 724.758667,619.528381 
	C719.868042,644.858093 712.010803,669.184875 700.507629,692.298462 
	C695.874329,701.608276 690.197693,710.255127 682.669739,717.465576 
	C670.833740,728.802429 656.533569,734.152832 640.269897,732.057495 
	C625.591431,730.166504 617.252014,719.811279 616.689148,704.894714 
	C616.108704,689.511475 620.647888,675.304138 626.722412,661.493774 
	C639.460571,632.533386 660.202332,610.276917 686.232056,593.034851 
	C694.201477,587.755798 697.514099,581.405579 697.577881,572.615479 
	C697.596008,570.121704 700.173828,566.699951 697.176575,565.266296 
	C693.748901,563.626831 693.059204,568.149170 691.077515,569.813965 
	C688.406494,572.057983 686.181702,574.832092 683.516296,577.083923 
	C678.269836,581.516357 672.246399,583.817139 665.457825,581.443054 
	C660.972229,579.874329 656.534241,581.393127 652.151855,580.778687 
	C640.896790,579.200562 632.075867,570.078125 629.666504,558.173462 
	C628.596680,552.887390 628.729858,547.584106 628.632141,542.261169 
	C628.538330,537.155029 626.969299,536.347839 622.101624,537.236877 
	C614.301758,538.661438 609.842224,542.562805 607.449707,550.521606 
	C603.731934,562.888611 596.786072,573.773682 588.622620,583.826538 
	C583.587219,590.027283 577.444458,594.117004 569.397949,595.325562 
	C565.796936,595.866394 562.336060,597.342712 558.734863,597.879272 
	C555.065491,598.425964 550.931946,599.394470 549.102661,594.367310 
	C548.925598,593.880737 548.101562,593.501953 547.502441,593.315552 
	C538.537231,590.525513 532.909912,583.726807 527.396912,576.746887 
	C526.270508,575.320740 525.352356,572.609375 522.827393,574.342957 
	C520.895874,575.669067 519.358826,577.627197 521.354309,580.248840 
	C522.171814,581.322876 521.742004,582.577637 521.186157,583.572205 
	C515.338440,594.033936 509.774658,604.716675 499.501495,611.792725 
	C493.727722,615.769714 487.344788,616.986023 480.477478,616.290344 
	C476.996765,615.937744 473.914032,614.596069 471.791321,611.877930 
	C465.061737,603.260864 459.170654,594.581299 457.501709,583.006104 
	C453.659393,556.357361 454.605988,529.856934 457.671753,503.332367 
	C462.011566,465.784882 468.793579,428.674286 478.644043,392.156555 
	C480.901703,383.787048 483.646729,375.582428 487.493927,367.785248 
	C488.908417,364.918427 490.670532,362.263092 493.164520,360.253174 
	C495.439972,358.419281 497.799744,357.318542 500.908142,359.099518 
	C503.585327,360.633514 506.436493,361.769653 509.907501,360.477417 
	C512.535522,359.499084 513.011719,362.243835 513.591492,364.109558 
	C516.148499,372.337219 515.035522,380.722443 513.838196,388.896271 
	C508.026611,428.571503 501.743622,468.177490 495.871674,507.844147 
	C491.850433,535.008667 488.044647,562.216858 488.317169,589.784485 
	C488.335938,591.684692 487.476074,594.293396 489.710602,595.209839 
	C492.245758,596.249451 493.529907,593.652649 494.794891,592.063660 
	C503.534637,581.085388 510.721802,569.090332 517.662537,556.928711 
	C519.248901,554.148926 517.858093,551.705688 517.384827,549.211548 
	C512.495056,523.443665 515.774841,498.743561 527.829163,475.517334 
	C533.806335,464.000427 541.929016,454.315643 554.852295,449.371552 
	C563.305481,446.137634 571.197693,449.032654 579.334656,449.583008 
	C580.795532,449.681824 582.240845,450.566681 583.668701,450.506134 
	C594.123169,450.062653 601.205811,455.489563 605.777771,464.072906 
	C608.610596,469.391418 612.066895,470.293579 617.095520,468.368500 
	C622.846008,466.167053 628.598083,463.967194 634.309937,461.668304 
	C636.793762,460.668640 639.177917,459.625793 641.989258,459.905243 
	C645.313354,460.235626 646.530823,457.702515 647.710999,455.236084 
	C651.976379,446.321503 657.106384,438.011932 663.976624,430.796814 
	C669.543457,424.950470 676.471008,422.126343 684.190308,420.809479 
	C685.656738,420.559296 687.703308,420.218628 688.457764,421.456909 
	C690.735962,425.196075 694.181946,424.582458 697.645081,424.764771 
	C704.577576,425.129761 711.167786,430.630035 712.584412,436.845337 
	C713.000122,438.669128 713.519104,440.669678 711.830688,441.945374 
	C710.204529,443.173981 708.613464,441.843628 707.316345,440.884338 
	C704.109009,438.512329 702.174866,439.466644 700.096130,442.656769 
	C682.301514,469.964874 670.171631,499.451477 665.277954,532.234619 
M790.251282,600.370178 
	C784.555054,599.241089 781.191956,601.684265 778.214600,606.635254 
	C770.158630,620.031616 764.065552,634.149414 760.881836,649.433411 
	C758.814148,659.360291 757.081726,669.389343 759.306152,679.572998 
	C760.252014,683.903137 762.241028,684.629517 765.382507,681.611816 
	C767.288757,679.780579 768.926697,677.640198 770.513000,675.510498 
	C784.090393,657.281799 792.711609,636.585510 800.351013,615.403809 
	C805.098877,602.239502 805.105896,602.242004 790.251282,600.370178 
M673.581238,637.072876 
	C661.317139,650.311523 651.887634,665.340698 645.780884,682.313354 
	C642.681763,690.926819 640.370544,699.812927 642.056458,709.165833 
	C642.326782,710.665527 642.612000,712.254150 644.451477,712.561646 
	C645.932617,712.809204 646.939453,711.808228 647.822266,710.779602 
	C648.689636,709.768921 649.507019,708.714844 650.335876,707.671509 
	C666.123230,687.799805 674.437378,664.516846 680.839172,640.403442 
	C681.583435,637.600220 684.605835,633.662170 681.374939,631.837219 
	C678.294678,630.097412 676.446350,634.709839 673.581238,637.072876 
M565.615479,526.504578 
	C558.518677,525.500244 566.495483,531.407715 562.422974,532.092651 
	C560.287903,531.790344 559.017029,529.422668 557.184387,527.835144 
	C554.428345,525.447754 552.906250,525.891602 552.267395,529.658569 
	C550.666687,539.097961 551.042908,548.593872 551.621338,558.043396 
	C551.975464,563.828735 553.346497,569.559448 556.291870,574.739319 
	C558.991821,579.487549 560.879395,579.702820 563.625854,575.149048 
	C570.197266,564.253235 574.735840,552.453979 578.511108,540.350281 
	C579.461792,537.302185 578.707642,534.980530 575.636108,533.275085 
	C572.304871,531.425354 569.265930,529.049194 565.615479,526.504578 
M635.821167,487.550812 
	C636.749695,484.357574 637.746704,481.181946 638.575378,477.962982 
	C638.941528,476.540802 639.343811,474.874023 637.971252,473.758209 
	C636.630981,472.668732 635.126831,473.295471 633.729370,473.900787 
	C627.927246,476.414001 622.140320,478.963074 616.319580,481.432281 
	C614.048157,482.395844 612.800842,483.896942 613.174438,486.440155 
	C614.578674,495.999268 615.411987,505.593628 615.160278,515.269409 
	C615.111389,517.146240 615.931030,518.470032 618.086670,518.522156 
	C623.145996,518.644531 630.558716,512.773376 631.569153,507.879639 
	C632.913147,501.370392 634.311707,494.872437 635.821167,487.550812 
M568.688354,496.660370 
	C570.230408,502.838867 572.578369,508.654266 576.718994,513.577332 
	C578.080933,515.196655 579.672363,517.224060 582.089539,516.354858 
	C584.158630,515.610901 584.404785,513.324036 584.637268,511.313995 
	C584.960754,508.517273 585.520508,505.726746 585.582397,502.924805 
	C585.780823,493.944336 588.532776,483.849579 576.271118,479.873718 
	C576.119019,479.824402 575.987732,479.702942 575.854553,479.604584 
	C573.330994,477.741425 571.644104,478.478088 570.454102,481.227081 
	C568.421570,485.922363 567.900146,490.797363 568.688354,496.660370 
M606.064270,500.400574 
	C606.321838,502.277649 605.812866,504.327240 607.591492,506.385620 
	C608.119568,502.213898 608.476440,498.528351 606.899292,494.517212 
	C605.593689,496.395142 606.173035,498.050751 606.064270,500.400574 
z"/>
<path fill="#000000" opacity="1.000000" stroke="none" 
	d="
M281.869629,380.864166 
	C281.787231,378.112488 281.321594,375.783051 282.050537,373.516907 
	C283.548279,372.846924 283.846985,374.936462 285.767517,374.608154 
	C286.301392,359.797974 285.067200,344.242188 292.929169,330.720306 
	C300.779999,317.217590 314.617096,310.885529 327.390961,303.495117 
	C327.837860,303.876221 328.284729,304.257324 328.731598,304.638428 
	C326.205109,309.367920 323.683746,314.100159 321.149994,318.825775 
	C319.813080,321.319153 318.286133,323.727325 317.156799,326.310333 
	C316.174347,328.557434 314.285187,330.977417 317.779968,333.157135 
	C318.537384,333.629578 318.194275,335.951599 318.264099,337.426147 
	C318.518280,342.795197 317.693695,348.263062 319.836029,353.541901 
	C323.439026,342.365814 322.621674,330.420074 325.827423,318.994385 
	C328.412231,320.235901 326.404999,323.309021 329.219818,324.158417 
	C331.380676,323.698578 331.680817,321.248932 332.537201,319.436829 
	C337.949310,307.984894 343.024292,296.335083 351.832275,286.915741 
	C366.831055,270.875885 385.343079,261.438263 406.929932,257.922668 
	C408.991730,257.586884 411.208984,257.215424 414.091309,258.921753 
	C401.124481,271.800293 387.620575,284.110107 381.363190,302.470001 
	C385.227448,302.542480 386.393219,300.057098 387.897095,298.350281 
	C397.832886,287.073639 408.119019,276.182648 420.679565,267.729767 
	C433.271210,259.256012 447.243164,254.918289 462.309937,253.601257 
	C468.457886,253.063843 474.586731,252.555832 480.754456,252.660263 
	C482.682129,252.692917 484.695282,252.505249 486.526825,253.524460 
	C486.123108,256.236237 483.227722,255.912933 481.924133,258.801453 
	C511.297852,257.008820 538.284241,263.928436 562.394958,280.000946 
	C586.071838,295.784302 606.868713,314.535339 619.658691,341.012268 
	C618.202820,341.619995 617.819580,341.928070 617.634216,341.836334 
	C597.005371,331.631439 574.275513,330.907440 552.180176,327.361633 
	C547.092041,326.545105 541.943970,325.986206 536.801270,325.659027 
	C531.969604,325.351654 527.167847,323.993835 522.334412,327.012024 
	C520.030212,328.450806 516.508789,327.186157 513.530579,326.628845 
	C509.995575,325.967377 506.219482,325.142609 503.676697,329.440552 
	C506.739197,331.902405 510.946259,330.172516 514.342346,332.791443 
	C491.894379,339.581055 469.405426,344.342926 445.580017,347.097351 
	C447.880219,349.499054 450.452698,347.876953 452.029755,349.372498 
	C450.988525,351.510132 448.935181,352.054352 447.278107,353.008087 
	C433.351562,361.023438 419.841980,369.550110 410.112366,382.783600 
	C408.349213,385.181702 405.857910,385.912140 403.168457,386.154297 
	C400.334686,386.409393 397.566925,386.856140 394.859283,387.782990 
	C394.013062,389.534454 396.571045,389.071716 396.339752,390.992035 
	C390.379517,396.145935 384.679993,402.329041 378.983429,408.538025 
	C375.896576,411.902557 370.070404,410.740051 365.764587,413.423401 
	C367.307098,414.711578 367.948395,415.962402 365.292725,416.843597 
	C348.261841,422.494720 332.237366,431.179352 314.191772,433.772156 
	C312.409485,434.028259 310.605499,434.639252 308.408844,433.172150 
	C311.607544,426.008667 319.387268,422.972229 323.855499,417.027893 
	C321.991974,415.016663 320.400360,417.192596 317.961334,416.097656 
	C322.829285,407.960144 329.590332,402.006958 337.158142,396.755768 
	C344.697876,391.524078 353.086029,387.914154 361.301422,383.858917 
	C352.804352,383.882812 345.138275,387.236755 336.809387,390.215851 
	C337.571808,386.319458 342.261475,386.620056 342.541901,383.034546 
	C339.428040,381.699493 337.412994,385.406738 334.543488,384.547058 
	C333.595306,382.991547 334.874420,382.076019 335.665131,381.144562 
	C337.281067,379.241150 339.232117,377.596527 340.686066,375.585663 
	C347.915405,365.587372 359.465759,360.444946 367.435577,350.958710 
	C375.295929,341.602783 386.192017,335.053925 396.336426,328.035675 
	C406.495361,321.007385 417.192688,314.861633 428.466125,309.808838 
	C434.231110,307.224976 440.226868,305.154297 446.128326,302.877502 
	C448.551331,301.942657 451.000610,301.076050 453.250793,299.534973 
	C445.892883,299.421082 439.040741,301.712341 432.359314,304.212067 
	C366.981995,328.671722 321.269104,374.126465 291.600372,436.577301 
	C282.422211,455.896790 275.055603,475.848267 271.225037,496.984406 
	C270.863129,498.981354 270.785004,498.967194 267.595245,501.177155 
	C266.037811,496.106415 266.670502,491.158539 267.223267,486.325836 
	C269.743591,464.290009 276.132111,443.355804 285.739288,423.398773 
	C287.401123,419.946594 287.893494,416.623657 287.063843,412.799225 
	C284.807526,402.398560 282.974426,391.910645 281.869629,380.864166 
M388.095459,344.396271 
	C386.572632,345.315155 384.723755,345.748840 382.896667,348.248627 
	C403.691132,342.410980 424.110077,339.579956 444.387604,335.935699 
	C425.291138,334.902100 406.835724,338.136902 388.095459,344.396271 
M331.454041,343.996277 
	C332.519135,348.374084 334.019745,345.067322 334.699463,343.984833 
	C337.437897,339.623444 340.000305,335.145966 342.476013,330.628204 
	C343.367920,329.000580 344.972137,326.867828 342.368378,325.496063 
	C339.601776,324.038513 337.589233,325.340820 336.617706,328.204498 
	C334.909515,333.239655 333.242523,338.288788 331.454041,343.996277 
z"/>
<path fill="#000000" opacity="1.000000" stroke="none" 
	d="
M229.669647,748.571045 
	C229.150772,754.154785 228.677109,759.290161 228.320663,764.433655 
	C228.176819,766.508911 228.159637,768.596191 225.544830,769.039062 
	C223.099747,769.453247 221.292999,768.270752 220.205658,766.182129 
	C218.402603,762.718689 218.319244,758.811279 217.598465,754.519653 
	C215.639191,756.827393 217.038162,760.236145 214.292374,761.698242 
	C211.725632,761.270447 212.082306,759.289429 212.183502,757.490662 
	C213.277740,738.042664 215.815247,718.768250 218.854630,699.536377 
	C222.617264,675.728210 226.086136,651.873352 229.645126,628.033203 
	C231.068527,618.498352 231.828735,608.820740 233.953552,599.449097 
	C235.482819,592.704346 232.536560,587.359802 230.637222,581.676575 
	C220.029938,549.937683 204.848480,520.331482 188.186966,491.417023 
	C176.683945,471.454651 164.785797,451.801941 148.130829,435.556213 
	C146.545731,434.010040 145.302002,431.259827 142.547867,432.075317 
	C139.693710,432.920349 139.753464,435.934631 139.192749,438.301453 
	C135.786011,452.681702 136.141754,467.121307 139.641953,481.346252 
	C142.707672,493.805542 151.844162,500.299622 163.809143,503.377594 
	C165.504013,503.813629 167.597229,503.339691 168.701233,505.297729 
	C169.046432,507.971008 165.480972,506.712372 165.205627,508.810822 
	C166.046021,510.951569 168.932083,510.136292 170.491394,513.052002 
	C164.567642,515.390137 155.993591,512.512695 153.331100,521.366577 
	C154.162766,522.302002 155.458618,523.759460 157.464188,526.015259 
	C150.556061,526.873535 147.484131,520.958740 142.380219,519.792175 
	C141.330429,520.378296 143.077225,521.628601 141.454483,522.677002 
	C131.920364,517.642883 123.715630,510.577667 116.677582,502.071655 
	C94.704033,475.514984 99.048401,438.479065 117.283249,414.508881 
	C123.236031,406.683777 131.833527,403.292999 140.805283,400.246582 
	C159.602905,393.863647 176.458633,396.599182 191.491135,409.807800 
	C201.480118,418.584869 209.734558,428.752747 216.283707,440.298096 
	C229.801529,464.128479 237.269272,490.287292 245.220825,516.235718 
	C248.582550,527.206055 251.304520,538.371460 254.413345,549.421204 
	C255.020920,551.580750 255.248413,554.050293 257.560699,555.512329 
	C260.308380,554.158386 260.788818,551.372375 261.666748,548.967651 
	C269.891815,526.438171 277.845062,503.794678 289.214600,482.576965 
	C294.489929,472.732269 300.173584,463.236816 308.170868,455.148224 
	C313.335480,449.924561 319.383392,451.241821 325.271698,451.048950 
	C328.031433,450.958588 328.645111,453.350830 327.727783,455.821991 
	C326.220581,459.881866 324.774994,463.970001 323.105072,467.963257 
	C308.476746,502.943787 298.261414,539.284241 289.209351,576.028931 
	C283.995941,597.191650 278.894836,618.386902 273.109222,639.420288 
	C269.997131,650.734070 269.473785,662.735901 267.297668,674.336304 
	C262.666260,699.025513 259.251526,723.952148 253.170349,748.358276 
	C251.684204,754.322754 249.709961,760.177917 247.694412,765.991272 
	C247.005112,767.979431 246.582428,771.247559 243.352951,770.360474 
	C240.463318,769.566772 241.058578,766.880981 241.380157,764.462830 
	C243.157089,751.101257 244.824158,737.724915 244.841095,724.210083 
	C244.842285,723.269348 244.841263,722.328613 244.327927,721.341797 
	C242.685944,732.682922 241.061172,744.026550 239.387848,755.363037 
	C239.042603,757.701965 239.500183,761.280273 235.970169,760.867737 
	C232.611374,760.475220 232.030289,756.955017 232.316132,754.121277 
	C233.066833,746.678955 234.197403,739.275208 235.151871,731.852905 
	C236.124939,724.286072 237.068497,716.715454 237.517654,709.061462 
	C233.971008,721.900696 231.286636,734.896484 229.669647,748.571045 
M118.266594,490.229279 
	C120.326004,493.560028 122.385414,496.890808 124.444832,500.221588 
	C124.832756,500.065674 125.220688,499.909760 125.608612,499.753845 
	C117.305069,484.297333 113.162369,467.909882 114.394196,450.319916 
	C109.554947,458.350037 111.406326,475.883575 118.266594,490.229279 
M240.494247,624.065308 
	C240.613876,621.348083 241.127899,618.557739 238.550781,614.862854 
	C234.946976,629.177917 233.911880,642.599792 231.936951,655.870422 
	C232.333328,655.948364 232.729691,656.026245 233.126068,656.104187 
	C235.512238,645.693176 237.898422,635.282104 240.494247,624.065308 
M114.661018,442.715607 
	C114.753014,443.022736 114.819290,443.342194 114.955894,443.627991 
	C114.988258,443.695740 115.370712,443.707794 115.399986,443.649292 
	C116.547241,441.356628 118.389725,439.196686 117.509613,435.874542 
	C114.713013,437.748657 115.191978,440.120728 114.661018,442.715607 
z"/>
<path fill="#000000" opacity="1.000000" stroke="none" 
	d="
M377.655151,558.659546 
	C386.986481,541.039124 393.258575,522.593506 399.658386,504.186218 
	C406.005463,485.930420 407.496552,466.361023 414.509369,448.157684 
	C421.248566,454.282135 416.116791,462.579865 419.748352,469.471497 
	C419.682037,462.819275 426.717255,461.531982 428.903198,456.243927 
	C430.366333,452.704559 432.878815,457.730530 435.341125,457.183716 
	C436.983002,456.433716 436.498962,454.740906 436.739227,453.337585 
	C436.995636,451.840179 437.205170,450.130829 439.015686,449.875458 
	C441.303772,449.552643 441.573792,451.675476 442.090851,453.140747 
	C442.980225,455.661194 443.209625,458.311493 443.327454,460.998383 
	C444.001678,476.371979 442.364716,491.583130 440.303345,506.771820 
	C437.044922,530.780823 436.740875,554.867065 438.049042,579.034546 
	C438.588379,588.997986 438.786316,598.976257 439.952332,608.898193 
	C439.991119,609.228333 440.166199,609.682007 440.016266,609.874695 
	C435.345215,615.876160 439.360199,622.216248 439.227325,628.389648 
	C439.184235,630.392578 440.132568,633.236145 437.160431,633.807800 
	C434.584290,634.303162 432.872589,632.398743 431.783020,630.156677 
	C427.793671,621.947388 424.942291,613.273438 421.466248,604.184814 
	C421.024628,612.118713 423.639099,619.163025 424.249481,627.498108 
	C417.442230,624.523254 418.233765,618.098083 414.651489,614.125977 
	C412.290466,619.033875 416.619110,622.898193 415.939453,627.446899 
	C412.966614,627.433167 412.380615,625.140259 411.442505,623.377808 
	C406.190979,613.511536 404.216339,602.749451 402.578949,591.834534 
	C401.839172,586.903137 402.678406,581.611145 400.226257,576.905212 
	C396.952606,577.481445 396.469482,580.057007 395.279846,581.920471 
	C389.826324,590.463135 386.688354,600.327698 379.980469,608.185791 
	C375.829376,613.048706 371.256592,617.341919 365.927795,620.832031 
	C356.111938,627.261047 349.585968,625.941711 339.954926,619.177795 
	C325.294952,608.882019 321.886383,593.920898 320.802399,577.913025 
	C318.576355,545.040466 323.287720,512.867065 331.974884,481.219086 
	C333.827667,474.469421 336.468506,467.958313 339.993835,461.876434 
	C342.388855,457.744537 343.357819,457.664185 346.927490,460.771667 
	C348.407593,460.604095 349.187988,458.656067 351.727570,459.433685 
	C352.514435,465.658234 348.426178,471.582275 348.525726,478.097870 
	C351.046692,477.831787 351.256042,476.072144 351.844055,474.855896 
	C353.876953,470.650940 356.113220,467.143646 361.729309,469.399628 
	C363.874115,470.261230 364.932526,466.957672 367.823334,467.926147 
	C369.568085,472.450714 365.924469,477.296051 367.534363,482.235413 
	C369.605988,481.668457 368.800385,478.709839 371.565552,477.721832 
	C368.357269,514.945129 359.893585,551.192566 359.575378,588.518005 
	C367.609253,579.756226 372.098022,569.098022 377.655151,558.659546 
z"/>
<path fill="#000000" opacity="1.000000" stroke="none" 
	d="
M523.291870,651.160278 
	C528.533142,649.402222 533.400146,647.781799 538.267212,646.161377 
	C538.208496,645.855591 538.149841,645.549805 538.091125,645.243958 
	C533.245117,646.194153 528.390198,647.101135 523.555603,648.106262 
	C518.345093,649.189453 513.200073,650.888916 507.941101,651.353455 
	C502.603699,651.824951 499.333954,656.103027 494.490997,657.300659 
	C447.343140,668.960022 402.134186,686.381409 356.892242,703.703979 
	C336.358215,711.566223 316.054901,719.949951 296.468231,729.988403 
	C295.437775,730.516541 294.323669,730.933228 293.201996,731.218994 
	C291.637451,731.617432 289.916534,732.558472 288.498840,731.066406 
	C287.032227,729.522888 288.332703,727.960693 288.850494,726.394470 
	C287.319641,725.418823 285.035400,727.092224 283.723511,724.615723 
	C284.375488,721.460754 287.719086,720.303406 290.022675,717.450195 
	C286.365662,717.783569 283.989929,719.932434 281.239624,721.056885 
	C279.855164,721.622864 278.581696,722.472839 277.181366,722.984802 
	C275.219757,723.702026 272.790222,725.207581 271.458405,722.510864 
	C270.226227,720.015808 272.850189,719.133911 274.439331,718.129700 
	C285.292511,711.270569 296.525299,705.103333 308.179077,699.700012 
	C364.993073,673.358032 423.973633,653.177673 484.633881,637.831604 
	C516.238281,629.836243 547.792847,621.566895 579.988770,616.184753 
	C594.101807,613.825500 608.273193,611.823608 622.627441,611.590881 
	C626.182434,611.533264 629.077332,612.104736 628.697388,616.685974 
	C628.479492,619.313110 630.452759,619.470337 632.278687,619.867493 
	C634.390076,620.326721 637.087158,620.690186 636.704224,623.549194 
	C636.376892,625.992249 633.688843,625.883728 631.788940,626.068298 
	C624.501160,626.776489 617.207458,627.543335 609.897278,627.869934 
	C600.549194,628.287659 591.450317,630.387207 582.210571,631.505188 
	C580.929138,631.660217 579.583740,632.094360 578.908386,633.881104 
	C580.846008,635.436401 582.858459,634.441711 584.871948,634.083984 
	C598.455200,631.670227 612.001892,628.900940 625.890747,629.010986 
	C629.118958,629.036560 632.487427,628.843506 635.514038,631.189941 
	C633.646423,634.342834 630.554016,633.809143 627.997864,634.223206 
	C609.605652,637.202942 591.160461,639.868774 572.800171,643.029236 
	C552.787476,646.474121 532.987366,650.951538 513.453674,656.551270 
	C512.050964,656.953430 510.638580,657.667480 508.487061,656.533875 
	C513.154785,653.552612 518.271118,653.009338 523.291870,651.160278 
z"/>
<path fill="#000000" opacity="1.000000" stroke="none" 
	d="
M399.386414,749.773010 
	C397.832367,750.031616 396.684448,750.237610 395.527893,750.314331 
	C389.011932,750.746826 389.141327,750.726074 388.617493,744.098755 
	C388.186462,738.645752 387.512665,733.204468 386.730469,727.789185 
	C386.178802,723.969727 387.769073,722.185913 391.435242,721.916321 
	C393.753784,721.745728 396.077057,721.434937 398.393097,721.476196 
	C403.945526,721.575012 406.766266,725.282043 405.542084,730.801270 
	C405.221588,732.246277 404.720886,733.332825 405.899170,734.883362 
	C411.397980,742.119385 409.116302,747.452881 399.386414,749.773010 
M401.937012,738.207520 
	C398.829773,737.699646 394.967102,734.956665 393.640564,740.333252 
	C393.224762,742.018555 393.605316,744.539246 395.875061,745.359436 
	C398.086365,746.158508 400.092133,745.127319 401.781952,743.697449 
	C403.456696,742.280457 404.359589,740.631287 401.937012,738.207520 
M399.326599,726.701660 
	C396.901367,725.933411 394.369751,725.332214 392.714142,727.897034 
	C391.936127,729.102356 391.908203,730.906128 393.058289,732.051880 
	C394.401215,733.389832 396.231750,732.990295 397.663727,732.223389 
	C399.568176,731.203491 401.465515,729.880188 399.326599,726.701660 
z"/>
<path fill="#000000" opacity="1.000000" stroke="none" 
	d="
M489.891663,714.241333 
	C495.042694,723.339233 492.859863,733.311340 484.936768,737.377869 
	C479.217163,740.313416 473.413208,740.407837 468.032013,736.492493 
	C463.676270,733.323303 461.944702,727.034790 463.545410,721.240723 
	C465.269104,715.001465 470.315979,710.463745 476.523346,709.771912 
	C481.480133,709.219421 486.170746,709.740417 489.891663,714.241333 
M468.924438,729.263306 
	C469.576447,730.218750 470.101288,731.300354 470.902405,732.107849 
	C474.386902,735.620056 480.277679,735.644409 483.983765,732.248840 
	C488.207458,728.379028 488.869598,721.416992 485.403015,717.326172 
	C482.257507,713.614258 476.550537,713.222107 472.361206,716.456848 
	C468.287323,719.602417 467.649017,723.835144 468.924438,729.263306 
z"/>
<path fill="#000000" opacity="1.000000" stroke="none" 
	d="
M537.989868,725.679077 
	C536.076233,730.628479 530.601746,733.367126 524.440247,732.864136 
	C518.075317,732.344543 513.285950,728.488342 512.013062,722.457458 
	C510.799438,716.707703 512.046387,711.455322 516.619507,707.517151 
	C521.403564,703.397339 527.114075,702.896118 533.059631,704.232056 
	C534.360535,704.524414 535.739807,705.208130 535.270691,706.956482 
	C534.709900,709.045898 533.227661,708.938354 531.341736,708.686523 
	C522.678833,707.529602 517.681641,710.581238 516.802063,717.445068 
	C516.320312,721.203979 517.747070,724.441956 520.741272,726.592529 
	C523.811951,728.798035 527.395081,728.235901 530.792847,727.163269 
	C532.512207,726.620544 532.782837,725.115723 532.598145,723.495056 
	C532.408569,721.831787 531.338013,721.323547 529.836853,721.267639 
	C528.364746,721.212830 526.431458,721.400818 526.307434,719.419312 
	C526.163269,717.114563 528.354248,717.179016 529.911377,716.888672 
	C536.754761,715.612732 536.758972,715.635315 537.989868,725.679077 
z"/>
<path fill="#000000" opacity="1.000000" stroke="none" 
	d="
M435.077972,735.786743 
	C435.986603,740.640259 439.236237,739.655762 442.186188,739.322632 
	C444.044098,739.112854 446.548615,737.818176 446.939270,740.902222 
	C447.283569,743.620178 444.686096,743.244324 443.002502,743.459473 
	C429.593750,745.173096 430.964539,747.969238 429.673248,732.934631 
	C429.332886,728.972046 428.915588,725.014587 428.662079,721.046631 
	C428.551178,719.310913 428.060059,717.016602 430.875153,716.966858 
	C433.210938,716.925537 433.138336,718.916077 433.320801,720.571045 
	C433.865417,725.510071 434.429382,730.446838 435.077972,735.786743 
z"/>
<path fill="#000000" opacity="1.000000" stroke="none" 
	d="
M530.097290,664.381348 
	C526.713928,662.014832 527.640564,660.374084 530.662170,659.481140 
	C534.792542,658.260559 539.001465,657.299561 543.193359,656.296936 
	C544.649292,655.948669 546.299927,655.641357 547.273926,657.164978 
	C548.345947,658.841919 547.381409,660.377563 546.400391,661.740295 
	C543.406555,665.899292 537.472839,666.915833 530.097290,664.381348 
z"/>
</svg>